<svg width="83" height="35" viewBox="0 0 83 35" fill="none" xmlns="http://www.w3.org/2000/svg">
<path d="M13.44 19.408V29.728C13.44 31.072 13.024 32.16 12.192 32.992C11.36 33.792 10.272 34.192 8.928 34.192H5.472C4.128 34.192 3.04 33.792 2.208 32.992C1.376 32.16 0.96 31.072 0.96 29.728V4.672C0.96 3.328 1.376 2.256 2.208 1.456C3.04 0.623998 4.128 0.207997 5.472 0.207997H8.928C10.272 0.207997 11.36 0.623998 12.192 1.456C13.024 2.256 13.44 3.328 13.44 4.672V15.424L8.88 14.944V4.912C8.88 4.752 8.8 4.672 8.64 4.672H5.76C5.6 4.672 5.52 4.752 5.52 4.912V29.488C5.52 29.648 5.6 29.728 5.76 29.728H8.64C8.8 29.728 8.88 29.648 8.88 29.488V19.408H13.44ZM28.065 29.728C28.065 31.072 27.649 32.16 26.817 32.992C25.985 33.792 24.897 34.192 23.553 34.192H20.097C18.753 34.192 17.665 33.792 16.833 32.992C16.001 32.16 15.585 31.072 15.585 29.728V4.672C15.585 3.328 16.001 2.256 16.833 1.456C17.665 0.623998 18.753 0.207997 20.097 0.207997H23.553C24.897 0.207997 25.985 0.623998 26.817 1.456C27.649 2.256 28.065 3.328 28.065 4.672V29.728ZM20.385 4.672C20.225 4.672 20.145 4.752 20.145 4.912V29.488C20.145 29.648 20.225 29.728 20.385 29.728H23.265C23.425 29.728 23.505 29.648 23.505 29.488V4.912C23.505 4.752 23.425 4.672 23.265 4.672H20.385ZM40.3804 14.944L39.9004 19.408H35.0044V34H30.4444V4.864H29.7244L30.2044 0.399998H41.3404L40.8604 4.864H35.0044V14.944H40.3804ZM53.1773 14.944L52.6973 19.408H47.8013V34H43.2413V4.864H42.5213L43.0013 0.399998H54.1373L53.6573 4.864H47.8013V14.944H53.1773ZM66.9341 29.536L66.5501 34H56.0381V4.864H55.3181L55.7981 0.399998H66.9341L66.4541 4.864H60.5981V14.944H65.9741L65.4941 19.408H60.5981V29.536H66.9341ZM72.6806 34H68.1206L70.7126 4.864H69.8486L70.3286 0.399998H79.1126L82.0886 34H77.5286L77.0006 28.24H73.2086L72.6806 34ZM73.5926 23.776H76.6166L75.1286 7.072L73.5926 23.776Z" fill="url(#paint0_linear_1_2)"/>
<defs>
<linearGradient id="paint0_linear_1_2" x1="41.5" y1="-7" x2="41" y2="34" gradientUnits="userSpaceOnUse">
<stop/>
<stop offset="1" stop-color="#925033"/>
</linearGradient>
</defs>
</svg>
