<svg width="326" height="276" viewBox="0 0 326 276" fill="none" xmlns="http://www.w3.org/2000/svg">
<path d="M217.033 72.6167C217.033 79.6149 211.587 86.4343 201.693 91.6226C191.893 96.7614 178.216 100 163 100C147.784 100 134.107 96.7614 124.307 91.6226C114.413 86.4343 108.967 79.6149 108.967 72.6167C108.967 65.6185 114.413 58.799 124.307 53.6108C134.107 48.4719 147.784 45.2333 163 45.2333C178.216 45.2333 191.893 48.4719 201.693 53.6108C211.587 58.799 217.033 65.6185 217.033 72.6167Z" stroke="#813E18" stroke-width="4"/>
<path d="M163 22C158.169 22 149.207 22.9345 141.53 25.9437C133.769 28.9856 128.1 33.7911 128.1 41.1833C128.1 49.2617 132.345 59.2453 139.011 67.2557C145.689 75.2803 154.405 80.8667 163 80.8667C172.307 80.8667 181.748 74.3116 188.567 65.263C194.33 57.6149 197.9 48.5911 197.9 41.1833C197.9 33.7911 192.231 28.9856 184.47 25.9437C176.793 22.9345 167.831 22 163 22Z" stroke="#813E18" stroke-width="4"/>
<path d="M197.85 39.1333C210.15 37.7667 223.817 50.0667 186.233 67.15" stroke="#813E18" stroke-width="4"/>
<ellipse cx="162" cy="46" rx="35" ry="15" fill="#813E18"/>
<path d="M107.333 154.816V175.456C107.333 178.144 106.501 180.32 104.837 181.984C103.173 183.584 100.997 184.384 98.3091 184.384H91.3971C88.7091 184.384 86.5331 183.584 84.8691 181.984C83.2051 180.32 82.3731 178.144 82.3731 175.456V125.344C82.3731 122.656 83.2051 120.512 84.8691 118.912C86.5331 117.248 88.7091 116.416 91.3971 116.416H98.3091C100.997 116.416 103.173 117.248 104.837 118.912C106.501 120.512 107.333 122.656 107.333 125.344V146.848L98.2131 145.888V125.824C98.2131 125.504 98.0531 125.344 97.7331 125.344H91.9731C91.6531 125.344 91.4931 125.504 91.4931 125.824V174.976C91.4931 175.296 91.6531 175.456 91.9731 175.456H97.7331C98.0531 175.456 98.2131 175.296 98.2131 174.976V154.816H107.333ZM136.583 175.456C136.583 178.144 135.751 180.32 134.087 181.984C132.423 183.584 130.247 184.384 127.559 184.384H120.647C117.959 184.384 115.783 183.584 114.119 181.984C112.455 180.32 111.623 178.144 111.623 175.456V125.344C111.623 122.656 112.455 120.512 114.119 118.912C115.783 117.248 117.959 116.416 120.647 116.416H127.559C130.247 116.416 132.423 117.248 134.087 118.912C135.751 120.512 136.583 122.656 136.583 125.344V175.456ZM121.223 125.344C120.903 125.344 120.743 125.504 120.743 125.824V174.976C120.743 175.296 120.903 175.456 121.223 175.456H126.983C127.303 175.456 127.463 175.296 127.463 174.976V125.824C127.463 125.504 127.303 125.344 126.983 125.344H121.223ZM161.214 145.888L160.254 154.816H150.462V184H141.342V125.728H139.902L140.862 116.8H163.134L162.174 125.728H150.462V145.888H161.214ZM186.808 145.888L185.848 154.816H176.056V184H166.936V125.728H165.496L166.456 116.8H188.728L187.768 125.728H176.056V145.888H186.808ZM214.321 175.072L213.553 184H192.529V125.728H191.089L192.049 116.8H214.321L213.361 125.728H201.649V145.888H212.401L211.441 154.816H201.649V175.072H214.321ZM225.814 184H216.694L221.878 125.728H220.15L221.11 116.8H238.678L244.63 184H235.51L234.454 172.48H226.87L225.814 184ZM227.638 163.552H233.686L230.71 130.144L227.638 163.552ZM62.125 232.82C62.3594 233.852 62.5781 234.742 62.7812 235.492C62.9844 236.242 63.2031 236.859 63.4375 237.344C63.6719 237.812 63.9375 238.164 64.2344 238.398C64.5312 238.633 64.8984 238.75 65.3359 238.75C65.5703 238.75 65.8047 238.727 66.0391 238.68C66.2734 238.617 66.4844 238.508 66.6719 238.352C66.8594 238.18 67.0078 237.945 67.1172 237.648C67.2422 237.352 67.3047 236.969 67.3047 236.5L69.6719 236.289C69.6719 237.914 69.2266 239.203 68.3359 240.156C67.4453 241.094 66.1875 241.562 64.5625 241.562C63.4219 241.562 62.4844 241.328 61.75 240.859C61.0156 240.391 60.3984 239.734 59.8984 238.891C59.3984 238.047 58.9609 237.039 58.5859 235.867C58.2266 234.695 57.8516 233.398 57.4609 231.977C57.1797 230.961 56.8047 230.055 56.3359 229.258C55.8672 228.461 55.4141 227.742 54.9766 227.102C54.5078 226.93 53.9609 226.805 53.3359 226.727C52.7109 226.648 52 226.609 51.2031 226.609H48.1094V237.461C48.1094 237.773 48.1562 238.016 48.25 238.188C48.3438 238.344 48.5 238.461 48.7188 238.539C48.9531 238.602 49.2578 238.641 49.6328 238.656C50.0234 238.672 50.5 238.68 51.0625 238.68H52.2812V241C51.8125 241 51.3516 241 50.8984 241C50.4453 241 49.9766 241 49.4922 241C49.0234 241 48.5156 241 47.9688 241C47.4375 240.984 46.8516 240.969 46.2109 240.953C45.5234 240.953 44.8828 240.961 44.2891 240.977C43.6953 240.977 43.1328 240.977 42.6016 240.977C42.0703 240.977 41.5547 240.984 41.0547 241C40.5547 241 40.0547 241 39.5547 241V238.68H40.7266C41.5078 238.68 42.1094 238.648 42.5312 238.586C42.9531 238.523 43.2578 238.43 43.4453 238.305C43.6484 238.18 43.7656 238.023 43.7969 237.836C43.8281 237.648 43.8438 237.43 43.8438 237.18V214.586C43.8438 214.227 43.8125 213.945 43.75 213.742C43.6875 213.539 43.5156 213.391 43.2344 213.297C42.9531 213.203 42.5234 213.148 41.9453 213.133C41.3828 213.102 40.5859 213.086 39.5547 213.086V210.766H52.4688C54.1719 210.766 55.7578 210.875 57.2266 211.094C58.7109 211.297 59.9922 211.688 61.0703 212.266C62.1484 212.828 62.9922 213.617 63.6016 214.633C64.2266 215.648 64.5391 216.953 64.5391 218.547C64.5391 220.422 63.9609 221.984 62.8047 223.234C61.6641 224.484 60.0312 225.336 57.9062 225.789C58.375 226.148 58.8125 226.531 59.2188 226.938C59.625 227.328 60.0078 227.797 60.3672 228.344C60.7266 228.875 61.0469 229.508 61.3281 230.242C61.625 230.961 61.8906 231.82 62.125 232.82ZM48.1094 224.336H53.2188C54.4844 224.336 55.5625 224.234 56.4531 224.031C57.3594 223.828 58.0938 223.508 58.6562 223.07C59.2188 222.633 59.6328 222.062 59.8984 221.359C60.1641 220.656 60.2969 219.805 60.2969 218.805C60.2969 217.664 60.1094 216.734 59.7344 216.016C59.3594 215.297 58.8047 214.742 58.0703 214.352C57.3516 213.945 56.4609 213.672 55.3984 213.531C54.3359 213.375 53.1172 213.297 51.7422 213.297H48.1094V224.336ZM88.5859 210.766C88.5859 210.766 88.7188 211.117 88.9844 211.82C89.25 212.523 89.6016 213.453 90.0391 214.609C90.4766 215.766 90.9766 217.086 91.5391 218.57C92.1172 220.039 92.6953 221.555 93.2734 223.117C93.8672 224.664 94.4453 226.18 95.0078 227.664C95.5859 229.148 96.1016 230.484 96.5547 231.672C97.0078 232.844 97.375 233.805 97.6562 234.555C97.9375 235.289 98.0859 235.68 98.1016 235.727C98.3828 236.461 98.6094 237.031 98.7812 237.438C98.9688 237.828 99.1953 238.117 99.4609 238.305C99.7266 238.492 100.086 238.609 100.539 238.656C101.008 238.688 101.664 238.703 102.508 238.703V241C101.633 241 100.766 240.992 99.9062 240.977C99.0469 240.961 98.1562 240.953 97.2344 240.953C96.7344 240.953 96.25 240.953 95.7812 240.953C95.3125 240.953 94.8281 240.953 94.3281 240.953C93.8281 240.953 93.2969 240.961 92.7344 240.977C92.1719 240.977 91.5391 240.984 90.8359 241C90.8359 240.875 90.8281 240.688 90.8125 240.438C90.8125 240.172 90.8125 239.914 90.8125 239.664V238.75C91.5312 238.75 92.1172 238.75 92.5703 238.75C93.0234 238.734 93.3828 238.711 93.6484 238.68C93.9141 238.633 94.0938 238.57 94.1875 238.492C94.2969 238.398 94.3516 238.273 94.3516 238.117C94.3203 238.039 94.2969 237.938 94.2812 237.812C94.2656 237.688 94.2344 237.539 94.1875 237.367L91.7031 229.914H79.4453C79.4297 229.945 79.3594 230.148 79.2344 230.523C79.1094 230.883 78.9531 231.336 78.7656 231.883C78.5781 232.414 78.375 232.992 78.1562 233.617C77.9375 234.242 77.7266 234.828 77.5234 235.375C77.3359 235.906 77.1797 236.359 77.0547 236.734C76.9297 237.094 76.8672 237.281 76.8672 237.297C76.7109 237.688 76.6328 237.969 76.6328 238.141C76.6328 238.438 76.7891 238.617 77.1016 238.68C77.4297 238.742 77.9688 238.773 78.7188 238.773H80.4062V241C79.5312 241 78.6562 240.992 77.7812 240.977C76.9219 240.961 76.0469 240.953 75.1562 240.953C74.6875 240.953 74.2344 240.953 73.7969 240.953C73.375 240.953 72.9375 240.953 72.4844 240.953C72.0312 240.953 71.5469 240.961 71.0312 240.977C70.5312 240.977 69.9688 240.984 69.3438 241V238.68C70.125 238.664 70.7344 238.648 71.1719 238.633C71.625 238.617 71.9766 238.555 72.2266 238.445C72.4766 238.336 72.6641 238.172 72.7891 237.953C72.9297 237.734 73.0781 237.414 73.2344 236.992C73.25 236.945 73.3438 236.695 73.5156 236.242C73.7031 235.773 73.9375 235.164 74.2188 234.414C74.5156 233.664 74.8516 232.797 75.2266 231.812C75.6016 230.812 76 229.758 76.4219 228.648C76.8594 227.539 77.2969 226.406 77.7344 225.25C78.1875 224.078 78.625 222.938 79.0469 221.828C79.4688 220.719 79.8672 219.672 80.2422 218.688C80.6328 217.688 80.9688 216.812 81.25 216.062C81.5469 215.312 81.7812 214.711 81.9531 214.258C82.125 213.789 82.2188 213.531 82.2344 213.484L83.1719 210.766H88.5859ZM80.3359 227.547H90.8359L85.5859 212.969L80.3359 227.547ZM106.68 210.766C107.102 210.766 107.523 210.773 107.945 210.789C108.383 210.789 108.859 210.797 109.375 210.812C109.891 210.812 110.461 210.82 111.086 210.836C111.711 210.836 112.438 210.836 113.266 210.836C113.328 210.836 113.578 210.836 114.016 210.836C114.469 210.82 114.992 210.812 115.586 210.812C116.18 210.797 116.789 210.789 117.414 210.789C118.055 210.773 118.586 210.766 119.008 210.766V213.086H117.039C116.477 213.086 116.039 213.141 115.727 213.25C115.43 213.344 115.211 213.477 115.07 213.648C114.93 213.82 114.844 214.023 114.812 214.258C114.797 214.477 114.789 214.711 114.789 214.961V234.484C114.789 236.578 114.68 238.375 114.461 239.875C114.258 241.359 113.852 242.578 113.242 243.531C112.633 244.484 111.766 245.188 110.641 245.641C109.516 246.094 108.039 246.32 106.211 246.32C105.32 246.32 104.492 246.266 103.727 246.156C102.977 246.047 102.258 245.891 101.57 245.688V240.016C101.586 240.016 101.719 240.031 101.969 240.062C102.203 240.094 102.461 240.125 102.742 240.156C103.023 240.188 103.281 240.219 103.516 240.25C103.766 240.266 103.898 240.273 103.914 240.273C104.008 240.898 104.117 241.414 104.242 241.82C104.383 242.242 104.555 242.57 104.758 242.805C104.977 243.055 105.234 243.227 105.531 243.32C105.828 243.43 106.18 243.484 106.586 243.484C107.492 243.391 108.203 243.125 108.719 242.688C109.25 242.266 109.648 241.703 109.914 241C110.18 240.297 110.344 239.469 110.406 238.516C110.469 237.562 110.5 236.516 110.5 235.375V214.984C110.5 214.688 110.484 214.422 110.453 214.188C110.438 213.953 110.359 213.758 110.219 213.602C110.078 213.43 109.852 213.305 109.539 213.227C109.227 213.133 108.781 213.086 108.203 213.086H105.812V210.766H106.68ZM138.93 210.766C138.93 210.766 139.062 211.117 139.328 211.82C139.594 212.523 139.945 213.453 140.383 214.609C140.82 215.766 141.32 217.086 141.883 218.57C142.461 220.039 143.039 221.555 143.617 223.117C144.211 224.664 144.789 226.18 145.352 227.664C145.93 229.148 146.445 230.484 146.898 231.672C147.352 232.844 147.719 233.805 148 234.555C148.281 235.289 148.43 235.68 148.445 235.727C148.727 236.461 148.953 237.031 149.125 237.438C149.312 237.828 149.539 238.117 149.805 238.305C150.07 238.492 150.43 238.609 150.883 238.656C151.352 238.688 152.008 238.703 152.852 238.703V241C151.977 241 151.109 240.992 150.25 240.977C149.391 240.961 148.5 240.953 147.578 240.953C147.078 240.953 146.594 240.953 146.125 240.953C145.656 240.953 145.172 240.953 144.672 240.953C144.172 240.953 143.641 240.961 143.078 240.977C142.516 240.977 141.883 240.984 141.18 241C141.18 240.875 141.172 240.688 141.156 240.438C141.156 240.172 141.156 239.914 141.156 239.664V238.75C141.875 238.75 142.461 238.75 142.914 238.75C143.367 238.734 143.727 238.711 143.992 238.68C144.258 238.633 144.438 238.57 144.531 238.492C144.641 238.398 144.695 238.273 144.695 238.117C144.664 238.039 144.641 237.938 144.625 237.812C144.609 237.688 144.578 237.539 144.531 237.367L142.047 229.914H129.789C129.773 229.945 129.703 230.148 129.578 230.523C129.453 230.883 129.297 231.336 129.109 231.883C128.922 232.414 128.719 232.992 128.5 233.617C128.281 234.242 128.07 234.828 127.867 235.375C127.68 235.906 127.523 236.359 127.398 236.734C127.273 237.094 127.211 237.281 127.211 237.297C127.055 237.688 126.977 237.969 126.977 238.141C126.977 238.438 127.133 238.617 127.445 238.68C127.773 238.742 128.312 238.773 129.062 238.773H130.75V241C129.875 241 129 240.992 128.125 240.977C127.266 240.961 126.391 240.953 125.5 240.953C125.031 240.953 124.578 240.953 124.141 240.953C123.719 240.953 123.281 240.953 122.828 240.953C122.375 240.953 121.891 240.961 121.375 240.977C120.875 240.977 120.312 240.984 119.688 241V238.68C120.469 238.664 121.078 238.648 121.516 238.633C121.969 238.617 122.32 238.555 122.57 238.445C122.82 238.336 123.008 238.172 123.133 237.953C123.273 237.734 123.422 237.414 123.578 236.992C123.594 236.945 123.688 236.695 123.859 236.242C124.047 235.773 124.281 235.164 124.562 234.414C124.859 233.664 125.195 232.797 125.57 231.812C125.945 230.812 126.344 229.758 126.766 228.648C127.203 227.539 127.641 226.406 128.078 225.25C128.531 224.078 128.969 222.938 129.391 221.828C129.812 220.719 130.211 219.672 130.586 218.688C130.977 217.688 131.312 216.812 131.594 216.062C131.891 215.312 132.125 214.711 132.297 214.258C132.469 213.789 132.562 213.531 132.578 213.484L133.516 210.766H138.93ZM130.68 227.547H141.18L135.93 212.969L130.68 227.547ZM188.547 232.82C188.781 233.852 189 234.742 189.203 235.492C189.406 236.242 189.625 236.859 189.859 237.344C190.094 237.812 190.359 238.164 190.656 238.398C190.953 238.633 191.32 238.75 191.758 238.75C191.992 238.75 192.227 238.727 192.461 238.68C192.695 238.617 192.906 238.508 193.094 238.352C193.281 238.18 193.43 237.945 193.539 237.648C193.664 237.352 193.727 236.969 193.727 236.5L196.094 236.289C196.094 237.914 195.648 239.203 194.758 240.156C193.867 241.094 192.609 241.562 190.984 241.562C189.844 241.562 188.906 241.328 188.172 240.859C187.438 240.391 186.82 239.734 186.32 238.891C185.82 238.047 185.383 237.039 185.008 235.867C184.648 234.695 184.273 233.398 183.883 231.977C183.602 230.961 183.227 230.055 182.758 229.258C182.289 228.461 181.836 227.742 181.398 227.102C180.93 226.93 180.383 226.805 179.758 226.727C179.133 226.648 178.422 226.609 177.625 226.609H174.531V237.461C174.531 237.773 174.578 238.016 174.672 238.188C174.766 238.344 174.922 238.461 175.141 238.539C175.375 238.602 175.68 238.641 176.055 238.656C176.445 238.672 176.922 238.68 177.484 238.68H178.703V241C178.234 241 177.773 241 177.32 241C176.867 241 176.398 241 175.914 241C175.445 241 174.938 241 174.391 241C173.859 240.984 173.273 240.969 172.633 240.953C171.945 240.953 171.305 240.961 170.711 240.977C170.117 240.977 169.555 240.977 169.023 240.977C168.492 240.977 167.977 240.984 167.477 241C166.977 241 166.477 241 165.977 241V238.68H167.148C167.93 238.68 168.531 238.648 168.953 238.586C169.375 238.523 169.68 238.43 169.867 238.305C170.07 238.18 170.188 238.023 170.219 237.836C170.25 237.648 170.266 237.43 170.266 237.18V214.586C170.266 214.227 170.234 213.945 170.172 213.742C170.109 213.539 169.938 213.391 169.656 213.297C169.375 213.203 168.945 213.148 168.367 213.133C167.805 213.102 167.008 213.086 165.977 213.086V210.766H178.891C180.594 210.766 182.18 210.875 183.648 211.094C185.133 211.297 186.414 211.688 187.492 212.266C188.57 212.828 189.414 213.617 190.023 214.633C190.648 215.648 190.961 216.953 190.961 218.547C190.961 220.422 190.383 221.984 189.227 223.234C188.086 224.484 186.453 225.336 184.328 225.789C184.797 226.148 185.234 226.531 185.641 226.938C186.047 227.328 186.43 227.797 186.789 228.344C187.148 228.875 187.469 229.508 187.75 230.242C188.047 230.961 188.312 231.82 188.547 232.82ZM174.531 224.336H179.641C180.906 224.336 181.984 224.234 182.875 224.031C183.781 223.828 184.516 223.508 185.078 223.07C185.641 222.633 186.055 222.062 186.32 221.359C186.586 220.656 186.719 219.805 186.719 218.805C186.719 217.664 186.531 216.734 186.156 216.016C185.781 215.297 185.227 214.742 184.492 214.352C183.773 213.945 182.883 213.672 181.82 213.531C180.758 213.375 179.539 213.297 178.164 213.297H174.531V224.336ZM215.008 210.766C215.008 210.766 215.141 211.117 215.406 211.82C215.672 212.523 216.023 213.453 216.461 214.609C216.898 215.766 217.398 217.086 217.961 218.57C218.539 220.039 219.117 221.555 219.695 223.117C220.289 224.664 220.867 226.18 221.43 227.664C222.008 229.148 222.523 230.484 222.977 231.672C223.43 232.844 223.797 233.805 224.078 234.555C224.359 235.289 224.508 235.68 224.523 235.727C224.805 236.461 225.031 237.031 225.203 237.438C225.391 237.828 225.617 238.117 225.883 238.305C226.148 238.492 226.508 238.609 226.961 238.656C227.43 238.688 228.086 238.703 228.93 238.703V241C228.055 241 227.188 240.992 226.328 240.977C225.469 240.961 224.578 240.953 223.656 240.953C223.156 240.953 222.672 240.953 222.203 240.953C221.734 240.953 221.25 240.953 220.75 240.953C220.25 240.953 219.719 240.961 219.156 240.977C218.594 240.977 217.961 240.984 217.258 241C217.258 240.875 217.25 240.688 217.234 240.438C217.234 240.172 217.234 239.914 217.234 239.664V238.75C217.953 238.75 218.539 238.75 218.992 238.75C219.445 238.734 219.805 238.711 220.07 238.68C220.336 238.633 220.516 238.57 220.609 238.492C220.719 238.398 220.773 238.273 220.773 238.117C220.742 238.039 220.719 237.938 220.703 237.812C220.688 237.688 220.656 237.539 220.609 237.367L218.125 229.914H205.867C205.852 229.945 205.781 230.148 205.656 230.523C205.531 230.883 205.375 231.336 205.188 231.883C205 232.414 204.797 232.992 204.578 233.617C204.359 234.242 204.148 234.828 203.945 235.375C203.758 235.906 203.602 236.359 203.477 236.734C203.352 237.094 203.289 237.281 203.289 237.297C203.133 237.688 203.055 237.969 203.055 238.141C203.055 238.438 203.211 238.617 203.523 238.68C203.852 238.742 204.391 238.773 205.141 238.773H206.828V241C205.953 241 205.078 240.992 204.203 240.977C203.344 240.961 202.469 240.953 201.578 240.953C201.109 240.953 200.656 240.953 200.219 240.953C199.797 240.953 199.359 240.953 198.906 240.953C198.453 240.953 197.969 240.961 197.453 240.977C196.953 240.977 196.391 240.984 195.766 241V238.68C196.547 238.664 197.156 238.648 197.594 238.633C198.047 238.617 198.398 238.555 198.648 238.445C198.898 238.336 199.086 238.172 199.211 237.953C199.352 237.734 199.5 237.414 199.656 236.992C199.672 236.945 199.766 236.695 199.938 236.242C200.125 235.773 200.359 235.164 200.641 234.414C200.938 233.664 201.273 232.797 201.648 231.812C202.023 230.812 202.422 229.758 202.844 228.648C203.281 227.539 203.719 226.406 204.156 225.25C204.609 224.078 205.047 222.938 205.469 221.828C205.891 220.719 206.289 219.672 206.664 218.688C207.055 217.688 207.391 216.812 207.672 216.062C207.969 215.312 208.203 214.711 208.375 214.258C208.547 213.789 208.641 213.531 208.656 213.484L209.594 210.766H215.008ZM206.758 227.547H217.258L212.008 212.969L206.758 227.547ZM251.57 218.945H248.828C248.812 218.773 248.797 218.609 248.781 218.453C248.781 218.297 248.781 218.141 248.781 217.984C248.75 217.172 248.555 216.438 248.195 215.781C247.836 215.125 247.328 214.57 246.672 214.117C246.031 213.664 245.266 213.312 244.375 213.062C243.484 212.812 242.492 212.688 241.398 212.688C240.414 212.688 239.523 212.812 238.727 213.062C237.945 213.297 237.281 213.633 236.734 214.07C236.188 214.508 235.766 215.031 235.469 215.641C235.188 216.234 235.047 216.883 235.047 217.586C235.047 218.336 235.195 218.984 235.492 219.531C235.789 220.078 236.195 220.562 236.711 220.984C237.227 221.406 237.836 221.781 238.539 222.109C239.258 222.422 240.031 222.727 240.859 223.023C241.688 223.305 242.562 223.594 243.484 223.891C244.406 224.188 245.336 224.508 246.273 224.852C247.242 225.227 248.125 225.656 248.922 226.141C249.734 226.609 250.43 227.164 251.008 227.805C251.586 228.445 252.031 229.18 252.344 230.008C252.672 230.82 252.836 231.758 252.836 232.82C252.836 234.055 252.594 235.203 252.109 236.266C251.641 237.328 250.969 238.258 250.094 239.055C249.234 239.836 248.188 240.453 246.953 240.906C245.734 241.344 244.375 241.562 242.875 241.562C240.766 241.562 238.945 241.273 237.414 240.695C235.898 240.102 234.727 239.289 233.898 238.258V241H230.805V231.438H233.617C233.617 232.562 233.766 233.586 234.062 234.508C234.359 235.43 234.828 236.219 235.469 236.875C236.109 237.531 236.93 238.039 237.93 238.398C238.945 238.758 240.164 238.938 241.586 238.938C242.617 238.938 243.562 238.805 244.422 238.539C245.281 238.273 246.016 237.898 246.625 237.414C247.25 236.914 247.734 236.32 248.078 235.633C248.422 234.93 248.594 234.148 248.594 233.289C248.594 232.164 248.289 231.25 247.68 230.547C247.07 229.828 246.266 229.219 245.266 228.719C244.266 228.219 243.125 227.773 241.844 227.383C240.578 226.977 239.289 226.523 237.977 226.023C236.82 225.586 235.805 225.117 234.93 224.617C234.055 224.102 233.32 223.531 232.727 222.906C232.148 222.281 231.711 221.578 231.414 220.797C231.117 220.016 230.969 219.133 230.969 218.148C230.969 217.039 231.188 216 231.625 215.031C232.062 214.062 232.695 213.227 233.523 212.523C234.352 211.805 235.359 211.242 236.547 210.836C237.734 210.414 239.078 210.203 240.578 210.203C241.344 210.203 242.078 210.242 242.781 210.32C243.5 210.398 244.188 210.539 244.844 210.742C245.516 210.93 246.164 211.195 246.789 211.539C247.414 211.867 248.039 212.297 248.664 212.828V210.883C249.039 210.883 249.492 210.891 250.023 210.906C250.555 210.906 251.07 210.906 251.57 210.906V218.945ZM274.07 210.766C274.07 210.766 274.203 211.117 274.469 211.82C274.734 212.523 275.086 213.453 275.523 214.609C275.961 215.766 276.461 217.086 277.023 218.57C277.602 220.039 278.18 221.555 278.758 223.117C279.352 224.664 279.93 226.18 280.492 227.664C281.07 229.148 281.586 230.484 282.039 231.672C282.492 232.844 282.859 233.805 283.141 234.555C283.422 235.289 283.57 235.68 283.586 235.727C283.867 236.461 284.094 237.031 284.266 237.438C284.453 237.828 284.68 238.117 284.945 238.305C285.211 238.492 285.57 238.609 286.023 238.656C286.492 238.688 287.148 238.703 287.992 238.703V241C287.117 241 286.25 240.992 285.391 240.977C284.531 240.961 283.641 240.953 282.719 240.953C282.219 240.953 281.734 240.953 281.266 240.953C280.797 240.953 280.312 240.953 279.812 240.953C279.312 240.953 278.781 240.961 278.219 240.977C277.656 240.977 277.023 240.984 276.32 241C276.32 240.875 276.312 240.688 276.297 240.438C276.297 240.172 276.297 239.914 276.297 239.664V238.75C277.016 238.75 277.602 238.75 278.055 238.75C278.508 238.734 278.867 238.711 279.133 238.68C279.398 238.633 279.578 238.57 279.672 238.492C279.781 238.398 279.836 238.273 279.836 238.117C279.805 238.039 279.781 237.938 279.766 237.812C279.75 237.688 279.719 237.539 279.672 237.367L277.188 229.914H264.93C264.914 229.945 264.844 230.148 264.719 230.523C264.594 230.883 264.438 231.336 264.25 231.883C264.062 232.414 263.859 232.992 263.641 233.617C263.422 234.242 263.211 234.828 263.008 235.375C262.82 235.906 262.664 236.359 262.539 236.734C262.414 237.094 262.352 237.281 262.352 237.297C262.195 237.688 262.117 237.969 262.117 238.141C262.117 238.438 262.273 238.617 262.586 238.68C262.914 238.742 263.453 238.773 264.203 238.773H265.891V241C265.016 241 264.141 240.992 263.266 240.977C262.406 240.961 261.531 240.953 260.641 240.953C260.172 240.953 259.719 240.953 259.281 240.953C258.859 240.953 258.422 240.953 257.969 240.953C257.516 240.953 257.031 240.961 256.516 240.977C256.016 240.977 255.453 240.984 254.828 241V238.68C255.609 238.664 256.219 238.648 256.656 238.633C257.109 238.617 257.461 238.555 257.711 238.445C257.961 238.336 258.148 238.172 258.273 237.953C258.414 237.734 258.562 237.414 258.719 236.992C258.734 236.945 258.828 236.695 259 236.242C259.188 235.773 259.422 235.164 259.703 234.414C260 233.664 260.336 232.797 260.711 231.812C261.086 230.812 261.484 229.758 261.906 228.648C262.344 227.539 262.781 226.406 263.219 225.25C263.672 224.078 264.109 222.938 264.531 221.828C264.953 220.719 265.352 219.672 265.727 218.688C266.117 217.688 266.453 216.812 266.734 216.062C267.031 215.312 267.266 214.711 267.438 214.258C267.609 213.789 267.703 213.531 267.719 213.484L268.656 210.766H274.07ZM265.82 227.547H276.32L271.07 212.969L265.82 227.547Z" fill="url(#paint0_linear_2_16)"/>
<defs>
<linearGradient id="paint0_linear_2_16" x1="163" y1="102" x2="162.926" y2="184" gradientUnits="userSpaceOnUse">
<stop/>
<stop offset="1" stop-color="#925033"/>
</linearGradient>
</defs>
</svg>
